<svg version="1.2" xmlns="http://www.w3.org/2000/svg" viewBox="0 0 1174 799" width="1174" height="799">
	<title>New Project</title>
	<style>
		.s0 { opacity: .1;fill: #282828 } 
		.s1 { opacity: .2;fill: #282828 } 
	</style>
	<path id="Rounded Rectangle 1" class="s0" d="m260.9-359.7l934.8 303.6c42.7 13.9 68 67.1 56.6 118.8l-140.3 634.4c-11.4 51.8-55.3 82.5-97.9 68.6l-934.8-303.6c-42.7-13.9-68-67.1-56.6-118.8l140.3-634.4c11.4-51.8 55.3-82.5 97.9-68.6z"/>
	<path id="Rounded Rectangle 1 copy 2" class="s1" d="m331.3-239.3l935.1 250.5c42.6 11.5 68 55.3 56.5 98l-140.3 523.5c-11.4 42.7-55.3 68-97.9 56.6l-935.1-250.5c-42.6-11.5-68-55.3-56.5-98l140.3-523.5c11.4-42.7 55.3-68 97.9-56.6z"/>
</svg>