<svg width="23" height="21" viewBox="0 0 23 21" fill="none" xmlns="http://www.w3.org/2000/svg">
<path d="M9.77904 1.40657L10.9186 0.33902C11.4012 -0.113007 12.1815 -0.113007 12.6589 0.33902L22.6381 9.68251C23.1206 10.1345 23.1206 10.8655 22.6381 11.3127L12.6589 20.661C12.1763 21.113 11.396 21.113 10.9186 20.661L9.77904 19.5934C9.29137 19.1366 9.30164 18.3912 9.79958 17.944L15.9853 12.4235H1.23201C0.549269 12.4235 0 11.909 0 11.2694V9.73059C0 9.09102 0.549269 8.57648 1.23201 8.57648H15.9853L9.79958 3.05599C9.29651 2.60877 9.28624 1.86341 9.77904 1.40657Z" fill="black"/>
</svg>
