<svg width="50" height="14" viewBox="0 0 50 14" fill="none" xmlns="http://www.w3.org/2000/svg">
<g clip-path="url(#clip0_145_4)">
<path d="M13.0156 0H15.2908V13.8514H13.0156V0ZM23.254 9.43277C23.254 11.5526 21.4242 11.7216 20.8799 11.7216C19.5199 11.7216 19.2724 10.4816 19.2724 9.73362V4.43243H16.9972V9.72254C16.9972 11.0356 17.4204 12.1194 18.1621 12.8419C18.8174 13.4807 19.7991 13.8297 20.8628 13.8297C21.617 13.8297 22.6852 13.6009 23.254 13.0951V13.8514H25.5292V4.43243H23.254V9.43277ZM30.0796 1.10811H27.8044V4.43243H26.098V6.64865H27.8044V13.8514H30.0796V6.64865H31.786V4.43243H30.0796V1.10811ZM38.9512 11.0351C38.4558 11.4689 37.8017 11.7094 37.0838 11.7094C35.5014 11.7094 34.3394 10.5774 34.3394 9.02332C34.3394 7.4692 35.4645 6.38492 37.0838 6.38492C37.7891 6.38492 38.4558 6.61374 38.9637 7.04757L39.309 7.33678L40.843 5.84305L40.4591 5.50564C39.5564 4.71168 38.3579 4.26622 37.0833 4.26622C34.2393 4.26622 32.1739 6.26524 32.1739 9.01169C32.1739 11.7465 34.2887 13.817 37.0833 13.817C38.3818 13.817 39.5928 13.3715 40.4841 12.5648L40.855 12.2274L39.297 10.7348L38.9512 11.0351ZM48.9638 5.25354C48.3085 4.61527 47.5406 4.26622 46.477 4.26622C45.7228 4.26622 44.8684 4.49504 44.2996 5.00034V0H42.0244V13.8514H44.2996V8.66264C44.2996 6.54282 45.8456 6.37439 46.39 6.37439C47.75 6.37439 47.7124 7.61492 47.7124 8.36178V13.8514H49.9876V8.37342C49.9876 7.06031 49.7061 5.97658 48.9638 5.25354Z" fill="#C3C3C4"/>
<path d="M37.0082 7.44531C37.4445 7.44531 37.8629 7.61413 38.1714 7.91462C38.4799 8.21512 38.6532 8.62267 38.6532 9.04764C38.6532 9.4726 38.4799 9.88016 38.1714 10.1807C37.8629 10.4811 37.4445 10.65 37.0082 10.65C36.572 10.65 36.1536 10.4811 35.8451 10.1807C35.5366 9.88016 35.3633 9.4726 35.3633 9.04764C35.3633 8.62267 35.5366 8.21512 35.8451 7.91462C36.1536 7.61413 36.572 7.44531 37.0082 7.44531Z" fill="#C3C3C4"/>
<path d="M9.82978 10.3725C8.96463 11.2396 7.78949 11.7095 6.55292 11.7095C4.01835 11.7095 2.17543 9.77029 2.17543 7.10861C2.17543 4.43475 4.01835 2.49556 6.55292 2.49556C7.77755 2.49556 8.9396 2.96484 9.81783 3.8203L10.1637 4.15772L11.6846 2.67618L11.3507 2.33876C10.0897 1.07386 8.38332 0.387939 6.55292 0.387939C2.81875 0.387939 0.0117188 3.27844 0.0117188 7.12025C0.0117188 10.9504 2.83126 13.8293 6.55292 13.8293C8.39583 13.8293 10.1022 13.1312 11.3633 11.8663L11.6971 11.5289L10.1887 10.0235L9.82978 10.3725Z" fill="#C3C3C4"/>
</g>
<defs>
<clipPath id="clip0_145_4">
<rect width="50" height="13.8514" fill="white"/>
</clipPath>
</defs>
</svg>
