<svg width="46" height="8" viewBox="0 0 46 8" fill="none" xmlns="http://www.w3.org/2000/svg">
<path d="M2.82133 2.80671C2.82133 2.80671 2.438 2.76201 2.438 3.15531V4.9162H4.95267V5.44358C4.95267 5.44358 4.96033 5.70279 4.72267 5.70279H2.438V7.99106H5.18267C5.18267 7.99106 6.84633 7.69609 6.86167 5.70279V2.80671H2.82133ZM6.785 0H1.83233C0.0383335 0.49162 0 2.20782 0 2.20782V8H1.90133V2.72626C1.90133 2.27933 2.28467 2.19888 2.28467 2.19888H6.77733L6.785 0ZM13.3247 6.33743C13.1943 6.43576 13.0947 6.5162 13.0257 6.5609C12.7803 6.73967 12.5503 6.87374 12.3357 6.98101C12.0213 7.13296 11.7453 7.20447 11.4923 7.20447C10.6337 7.20447 9.92067 6.90056 9.35333 6.2838C8.77833 5.66704 8.49467 4.88939 8.49467 3.95978C8.49467 3.05698 8.74767 2.27933 9.269 1.60894C9.78267 0.947486 10.4113 0.616759 11.1473 0.616759C11.454 0.616759 11.7837 0.67933 12.121 0.804469C12.5657 0.965363 12.9183 1.21564 13.2097 1.52849L12.719 2.16313C12.512 1.92179 12.236 1.75196 11.9217 1.64469C11.684 1.56425 11.4233 1.51955 11.132 1.51955C10.6183 1.51955 10.1813 1.76089 9.82867 2.24357C9.48367 2.7352 9.30733 3.30726 9.30733 3.98659C9.30733 4.65698 9.50667 5.21117 9.90533 5.64916C10.304 6.08715 10.81 6.31061 11.4233 6.31061C11.6763 6.31061 11.937 6.21229 12.2053 6.03352C12.4277 5.83687 12.5427 5.73855 12.5427 5.73855V4.34413H10.879L11.1167 3.4771H13.3247V6.33743ZM18.331 4.63911C18.331 5.3095 18.124 5.8905 17.7177 6.38212C17.3113 6.87374 16.8053 7.12402 16.1997 7.12402C15.64 7.12402 15.157 6.88268 14.7353 6.4C14.3137 5.91732 14.1067 5.33631 14.1067 4.64804C14.1067 3.96871 14.306 3.38771 14.7047 2.88715C15.1033 2.38659 15.594 2.14525 16.1613 2.14525C16.7977 2.14525 17.3113 2.38659 17.7177 2.86033C18.124 3.32514 18.331 3.92402 18.331 4.63911ZM17.5567 4.65698C17.5567 4.20112 17.4263 3.81676 17.1657 3.50391C16.905 3.18212 16.583 3.03017 16.192 3.03017C15.8317 3.03017 15.525 3.19106 15.2643 3.52179C15.0113 3.84358 14.881 4.219 14.881 4.63911C14.881 5.0771 15.0113 5.45251 15.2643 5.76536C15.5173 6.07821 15.8393 6.23911 16.2227 6.23911C16.583 6.23911 16.8897 6.08715 17.1503 5.7743C17.4263 5.45251 17.5567 5.07709 17.5567 4.65698ZM23.276 4.63911C23.276 5.3095 23.069 5.8905 22.6627 6.38212C22.2563 6.87374 21.7503 7.12402 21.1447 7.12402C20.585 7.12402 20.102 6.88268 19.6803 6.4C19.2587 5.91732 19.0517 5.33631 19.0517 4.64804C19.0517 3.96871 19.251 3.38771 19.6497 2.88715C20.0483 2.38659 20.539 2.14525 21.1063 2.14525C21.7427 2.14525 22.2563 2.38659 22.6627 2.86033C23.069 3.32514 23.276 3.92402 23.276 4.63911ZM22.494 4.65698C22.494 4.20112 22.3637 3.81676 22.103 3.50391C21.8423 3.18212 21.5203 3.03017 21.1293 3.03017C20.769 3.03017 20.4623 3.19106 20.2017 3.52179C19.9487 3.84358 19.8183 4.219 19.8183 4.63911C19.8183 5.0771 19.9487 5.45251 20.2017 5.76536C20.4547 6.07821 20.7767 6.23911 21.16 6.23911C21.5203 6.23911 21.827 6.08715 22.0877 5.7743C22.3637 5.45251 22.494 5.07709 22.494 4.65698ZM27.8453 6.98994L27.1323 7.11508V6.31061L26.979 6.5162C26.841 6.66816 26.6877 6.78436 26.5267 6.88268C26.2813 7.01676 26.0207 7.07933 25.7523 7.07933C25.1927 7.07933 24.7173 6.83799 24.334 6.36425C23.9507 5.8905 23.7513 5.3095 23.7513 4.64804C23.7513 3.95978 23.943 3.36983 24.3263 2.88715C24.7097 2.39553 25.1697 2.15419 25.7293 2.15419C26.0513 2.15419 26.3273 2.21676 26.5573 2.33296C26.726 2.42235 26.864 2.53855 26.9867 2.68156C27.025 2.74413 27.0633 2.8067 27.1093 2.86927V0.750838L27.8683 0.625698L27.8453 6.98994ZM27.1783 4.70168C27.1783 4.22793 27.0403 3.8257 26.7643 3.50391C26.4883 3.17318 26.174 3.01229 25.8137 3.01229C25.415 3.01229 25.1007 3.16425 24.8553 3.4771C24.6253 3.77207 24.5103 4.13855 24.5103 4.5676C24.5103 5.05028 24.633 5.45251 24.8707 5.76536C25.1083 6.07821 25.4073 6.23017 25.783 6.23017C26.1433 6.23017 26.4653 6.08715 26.749 5.79218C27.0327 5.49721 27.1783 5.13073 27.1783 4.70168ZM31.8627 1.62682H29.7313V3.3162H31.3873V4.18324H29.7313V6.98101L28.9033 7.12402V0.750838H31.7017L31.8627 1.62682ZM33.5723 1.1352L33.0587 1.88603L32.568 1.1352L33.0817 0.393296L33.5723 1.1352ZM33.419 6.98994L32.66 7.11508V2.39553L33.419 2.26145V6.98994ZM36.8537 2.20782L36.4933 3.17318C36.4473 3.16424 36.4013 3.16425 36.3477 3.16425C36.271 3.16425 36.202 3.17318 36.1253 3.18212C36.0487 3.19106 35.972 3.22682 35.8877 3.28045C35.7267 3.36089 35.5887 3.53966 35.4737 3.79888C35.3433 4.10279 35.2743 4.43352 35.2743 4.77319V6.98101L34.5153 7.12402V2.39553L35.2207 2.24357V3.22682C35.3127 3.05698 35.4047 2.88715 35.4967 2.70838C35.627 2.52961 35.7803 2.40447 35.949 2.32402C36.041 2.27933 36.202 2.25252 36.455 2.2257C36.7003 2.20782 36.8383 2.19888 36.8537 2.20782ZM42.527 6.98994L41.768 7.11508V3.87933C41.768 3.58436 41.7143 3.36089 41.5993 3.22682C41.4843 3.09274 41.3157 3.02123 41.0933 3.02123C40.825 3.02123 40.6257 3.14637 40.4877 3.40559C40.3957 3.58436 40.342 3.77207 40.342 3.95978V6.97207L39.583 7.13296V3.88827C39.583 3.60223 39.5293 3.38771 39.4143 3.23575C39.2993 3.0838 39.1537 3.01229 38.962 3.01229H38.8853C38.617 3.01229 38.4253 3.13743 38.3027 3.40559C38.2107 3.60223 38.1647 3.85251 38.1647 4.15642V6.96313L37.375 7.12402V2.37765L38.088 2.23464V2.84246C38.1647 2.69944 38.249 2.58324 38.318 2.50279C38.525 2.27933 38.7627 2.17207 39.031 2.17207C39.33 2.17207 39.5523 2.2257 39.7057 2.3419C39.836 2.44022 39.9587 2.62793 40.089 2.89609C40.3497 2.41341 40.7177 2.17207 41.2083 2.17207C41.676 2.17207 42.021 2.3419 42.251 2.6905C42.435 2.97654 42.527 3.39665 42.527 3.9419V6.98994ZM46 5.55978C46 5.99777 45.8697 6.35531 45.609 6.6324C45.3483 6.91844 45.0187 7.05252 44.62 7.05252C44.321 7.05252 44.0527 6.97207 43.8073 6.81117C43.562 6.65028 43.378 6.46257 43.263 6.24805L43.7997 5.69386C43.838 5.76536 43.8763 5.81899 43.907 5.85475C44.1063 6.09609 44.344 6.21229 44.62 6.21229C44.8117 6.21229 44.965 6.14972 45.0723 6.03352C45.1873 5.91732 45.241 5.75642 45.241 5.5419C45.241 5.30056 45.1107 5.13966 44.85 5.05028C44.3363 4.87151 44.0527 4.76425 44.0143 4.74637C43.7767 4.60335 43.608 4.4514 43.5007 4.28157C43.378 4.08492 43.3167 3.8257 43.3167 3.49497C43.3167 3.0838 43.447 2.75307 43.7 2.47598C43.953 2.20782 44.2597 2.07374 44.6123 2.07374C44.8807 2.07374 45.126 2.14525 45.356 2.28827C45.586 2.43128 45.747 2.58324 45.8467 2.75307L45.3943 3.32514C45.3253 3.24469 45.2487 3.17319 45.172 3.11062C44.988 2.95866 44.8117 2.88715 44.6507 2.88715C44.4897 2.88715 44.3593 2.93184 44.2597 3.01229C44.137 3.11061 44.0757 3.26257 44.0757 3.45922C44.0757 3.64693 44.1293 3.78995 44.252 3.87933C44.3517 3.95084 44.5663 4.03128 44.9113 4.12067C45.2487 4.21899 45.517 4.37989 45.701 4.61229C45.9157 4.86257 46 5.16648 46 5.55978Z" fill="#C3C3C4"/>
</svg>
